<?xml version="1.0" standalone="no"?>
<svg version="1.1" id="downloadSvg" xmlns="http://www.w3.org/2000/svg" xmlns:xlink="http://www.w3.org/1999/xlink" x="0px" y="0px" width="512" height="512" viewBox="0 0 1200 1200" enable-background="new 0 0 1200 1200" xml:space="preserve">
<g>
	<path fill="#eee" d="M836.782,320.928l2.297-11.483c0,0-18.377-24.696-15.506-34.464c0,0-6.883-15.494-5.742-25.844&#10;&#9;&#9;c1.137-10.327-17.239-58.586,37.327-61.456c0,0,43.654-6.875,40.784,49.981c0,0,9.756-3.46,5.167,12.623&#10;&#9;&#9;c0,0-6.897,12.639-8.619,15.502c0,0,0.574,10.924-1.141,14.928l5.16,7.464l12.635,14.935c0,0,53.985,18.962,58.578,40.78&#10;&#9;&#9;c4.601,21.841,2.878,29.864,3.445,33.89c0.582,4.019,5.174,32.734,5.738,39.049c0.593,6.316-1.137,11.498-1.703,17.225&#10;&#9;&#9;c-0.582,5.756,1.14,36.753,0,44.799c-1.156,8.053-5.182,21.258-8.62,30.438c-3.453,9.201-6.897,14.361-9.768,18.954&#10;&#9;&#9;c-2.867,4.585-9.764,4.585-10.338,10.334c-0.574,5.742,0.574,9.186,1.163,12.631c0.574,3.453-6.323,18.962-6.323,18.962&#10;&#9;&#9;s6.897,35.03,2.863,48.81c-4.019,13.787-5.167,17.239-6.89,40.779c-1.723,23.556-2.304,71.217-2.304,72.947&#10;&#9;&#9;c0,1.7-1.704,94.75-1.141,106.225c0.566,11.498,0.566,62.627-0.563,70.658c-1.167,8.038,1.129,29.848-2.315,36.171&#10;&#9;&#9;c-3.433,6.346-9.756,12.065-10.338,15.51c-0.566,3.453-1.707,15.51-1.141,17.232c0.575,1.722,0.575,19.521,0.575,19.521&#10;&#9;&#9;s-13.202,11.483-20.099,19.528c-6.897,8.038-30.434,25.286-53.411,13.795c-22.977-11.483-0.582-25.852-0.582-25.852&#10;&#9;&#9;s15.513-24.129,16.673-28.141c1.129-4.027,1.129-7.471,1.129-7.471s-5.73-4.593-17.803-0.566&#10;&#9;&#9;c-12.046,4.011-43.061,11.49-43.061,11.49s-37.339-4.601-26.422-17.813c10.912-13.205,31.004-14.943,31.004-14.943&#10;&#9;&#9;s14.936-8.023,17.228-12.616c2.308-4.594,5.187-17.806,8.62-22.399c3.445-4.594,8.612-6.905,11.491-9.186&#10;&#9;&#9;c2.87-2.289-14.924-4.616-10.343-35.046c4.601-30.43,4.601-28.125,1.734-40.19c-2.882-12.065-8.62-41.346-12.057-54&#10;&#9;&#9;c-3.445-12.616-17.236-63.171-18.384-76.369c-1.16-13.214-11.483-56.863-9.76-62.023c1.722-5.168-6.323-12.639-8.046-18.954&#10;&#9;&#9;c-1.71-6.323-3.441-20.677-3.441-20.677s-1.722,1.707,0.574-2.878c2.293-4.578,2.293-4.578,2.293-4.578&#10;&#9;&#9;s-19.101,15.675-21.391,17.39c0,0-27.774,9.262-14.441-9.247c0,0,31.242-97.748,32.964-118.426&#10;&#9;&#9;c1.73-20.662,5.164-51.106,9.19-56.856c4.019-5.734,3.437-22.981,4.019-29.304c0.567-6.316-2.878-40.764,11.479-51.673&#10;&#9;&#9;C823.573,330.114,836.782,320.928,836.782,320.928z" style="fill: #9ab427;"/>
	<path fill="#eee" d="M421.335,301.513c0,0,5.325-8.66,2.822-22.367c0,0-12.045,0-13.728-11.737&#10;&#9;&#9;c-1.673-11.747-6.146-10.906-8.095-15.102c-1.96-4.208-10.076-7.84-6.157-24.327c3.92-16.509,11.45-35.244,20.982-36.351&#10;&#9;&#9;c9.501-1.119,7.818-1.129,10.065-4.197c2.215-3.078,26.84-18.181,49.505-3.078c22.622,15.103,34.391,34.956,32.123,47.257&#10;&#9;&#9;c0,0-1.385-5.027-3.334-9.511c0,0,1.395,8.947-0.288,13.431c0,0-3.632-8.947-5.304-10.076c0,0-1.683,5.88-0.575,8.117&#10;&#9;&#9;c1.118,2.247,0.298,6.71-0.543,10.341c0,0,8.105,18.458-1.097,29.929c0,0-6.455,14.804-6.455,19.011&#10;&#9;&#9;c0,0,0.554,17.627-22.367,13.985l4.186,3.355c0,0,3.078,0.564,4.484,3.067c0,0,9.501,2.248,11.46,6.998&#10;&#9;&#9;c0,0,23.496,4.197,26.01,1.396c0,0,0.554,6.721,0,8.115c0,0,14.815,8.106,17.882,17.329c3.079,9.244,8.915,28.703,10.47,33.347&#10;&#9;&#9;c1.555,4.686,2.407,9.724,3.802,13.367c1.395,3.621,2.237,7.253,3.621,10.321c1.417,3.099,2.525,4.217,2.237,8.68&#10;&#9;&#9;c-0.266,4.484,1.417,5.591,2.525,9.244c1.118,3.621,5.592,19.842,6.433,23.198c0.852,3.355-0.554,4.761,1.119,6.699&#10;&#9;&#9;c1.683,1.982,4.484,7.275,6.167,12.035c1.672,4.772-0.842,7.285,1.097,10.906c1.97,3.632,6.177,7.84,6.177,7.84l81.628-36.074&#10;&#9;&#9;c0,0,7.541-5.88,12.035,6.987c4.484,12.866,43.061,103.472,43.061,103.472s1.949,1.949-0.554,6.433c0,0-0.841,4.176-5.602,5.582&#10;&#9;&#9;l-54.799,23.208c0,0,0.554,4.197,1.396,4.75c0,0-5.038,2.503-6.988-1.96l-3.642,1.96c0,0,3.355,6.988-2.791,9.799&#10;&#9;&#9;c0,0,2.791,4.207-8.105,5.027c0,0-1.959,4.484-8.67,4.484c0,0-7.561,3.068-9.521,1.396l-5.869-6.434l-31.878,13.409&#10;&#9;&#9;c0,0-5.038,5.592-8.382-5.304c-3.355-10.906-22.09-60.102-22.09-60.102s-4.761,11.993-4.197,13.676l-2.801,2.247&#10;&#9;&#9;c0,0,1.406,86.41-5.028,113.25l-3.078,2.535c0,0-3.355,38.29-11.736,53.946c0,0-1.417,11.748-4.485,16.786&#10;&#9;&#9;c0,0,2.514,6.731-3.089,19.576c0,0,0.586,37.757-0.255,47.257c-0.842,9.511-8.126,74.385-9.522,82.234&#10;&#9;&#9;c-1.395,7.818-4.196,35.488-1.672,41.943c2.503,6.412,9.501,27.948,10.332,31.59c0.863,3.632,4.505,7.541,7.275,10.897&#10;&#9;&#9;c2.801,3.376,17.328,8.392,11.459,26.84c0,0-14.527,10.927-36.063,5.038c0,0-10.341-9.202-9.224-22.356&#10;&#9;&#9;c1.118-13.154-0.565-1.129-0.565-1.129s-5.581-13.708-7.264-12.578l-1.683,24.582l-4.462-0.266c0,0-2.802-24.316-8.691-37.182&#10;&#9;&#9;c0,0-17.318-17.329,4.207-37.47c0,0,5.869-9.51,0.576-54.521c-5.337-45.042-3.366-32.719-5.028-36.649&#10;&#9;&#9;c-1.703-3.909-5.346-25.722-4.228-34.392c1.129-8.669,2.248-29.353,3.377-34.955c1.097-5.592-1.129-11.727-1.129-18.458&#10;&#9;&#9;c0-6.711-0.288-28.513,1.981-33.838c2.205-5.315,1.917-27.957,1.917-27.957L446.8,701.97c0,0-5.603,29.078-26.851,63.479&#10;&#9;&#9;c0,0-4.483,16.753-15.944,25.445c0,0-11.748,24.049-12.569,27.681c-0.863,3.642-19.022,46.703-20.428,50.612&#10;&#9;&#9;c-1.395,3.92-11.748,33.273-12.301,37.746c-0.565,4.463-2.248,20.141-2.514,27.415c-0.288,7.253-1.129,24.88-0.288,29.364&#10;&#9;&#9;c0.853,4.473,0.277,10.341,1.96,13.973c1.683,3.643,19.576,32.719,1.683,39.153c0,0-29.374,6.166-38.577-9.799&#10;&#9;&#9;c0,0-8.403-12.578-2.823-27.66l-1.395-9.522l-1.949,7.265l-5.603-0.277c0,0,4.484-22.932,1.694-28.79&#10;&#9;&#9;c-2.791-5.889-6.168-19.033,1.384-25.732c7.551-6.721,13.974-7.828,13.974-7.828s3.366-8.394,3.089-32.176&#10;&#9;&#9;c-0.277-23.773,5.315-65.13,14.815-84.716c9.512-19.576,7.838-20.982,12.855-26.563c5.038-5.592,8.968-11.748,9.809-16.775&#10;&#9;&#9;c0.831-5.049,6.423-37.481,7.264-42.796c0.842-5.304,2.514-14.836,2.237-20.694c-0.288-5.858-0.053-12.43-0.32-18.096&#10;&#9;&#9;c-0.245-5.677-2.481-35.861,1.981-48.738c4.496-12.844,3.931-24.891,8.127-33.549c4.175-8.68-0.288-11.748-0.288-11.748&#10;&#9;&#9;l-1.949-1.97c0,0,0.554-42.22,3.344-57.589c2.812-15.401,6.998-29.087,7.552-32.165c0.575-3.068-3.632-26.276-1.395-32.442&#10;&#9;&#9;c0,0-11.46-34.104-16.498-45.862c-5.028-11.737-21.813-51.443-17.893-64.587c3.909-13.143,6.71-18.458,19.853-23.507&#10;&#9;&#9;c0,0,15.933-2.503,17.328-15.368c0,0,6.731-3.345,11.194-0.831l4.463-3.068C411.823,301.257,418.267,302.919,421.335,301.513z" style="fill: #ff5722"/>
	<path fill="#fff" d="M729.364,440.458c0.722-0.991,15.441-21.564,17.903-25.76c2.457-4.15,5.141-10.037,7.353-16.195&#10;&#9;&#9;c2.198-6.13,8.584-14.696,15.937-38.73c7.366-24.043-6.122-37.523-12.498-36.297c-6.395,1.218-21.101-10.073-24.521-12.025&#10;&#9;&#9;c-3.452-1.963-6.88-17.413-6.88-17.413s-4.41,5.64-10.536,2.198c-6.136-3.424-3.439-35.306-3.439-35.306&#10;&#9;&#9;c2.207,2.443,7.353-6.395,7.353-6.395c16.681-23.525,7.116-31.636,7.116-31.636c0.981-20.111-10.795-41.937-17.403-51.502&#10;&#9;&#9;c-6.631-9.555-23.802-11.781-40.225-10.3c-16.445,1.463-27.24,21.836-32.381,28.957c-5.155,7.103-3.193,34.816-1.232,38.739&#10;&#9;&#9;c1.963,3.933,4.174-5.158,0.731,12.263c-3.447,17.422,27.977,50.03,27.977,50.03c2.198,0,1.217,13.498,1.217,13.498&#10;&#9;&#9;s-13.974,13.479-15.214,13.979c-1.222,0.482-3.184,0.981-6.621,1.481c-3.429,0.481-15.7,0.953-20.855,1.471&#10;&#9;&#9;c-5.146,0.473-7.853,5.132-11.518,6.376c-3.679,1.227-7.617,4.905-12.012,8.584c-4.414,3.679-7.861,14.46-11.54,20.609&#10;&#9;&#9;c-3.666,6.113-5.146,12.743-6.622,13.979c-1.467,1.208-3.915,7.349-7.353,8.575c-3.433,1.208-8.102,11.281-9.083,14.451&#10;&#9;&#9;c-0.967,3.215-8.811,17.176-11.018,18.657c-2.212,1.481-18.398,26.722-18.398,26.722c-12.757,20.374,3.428,33.598,5.886,35.325&#10;&#9;&#9;c2.439,1.717,16.672,6.885,19.379,7.62c2.683,0.726,13.47,5.396,15.432,5.623c1.972,0.263,5.65-1.725,5.65-1.725&#10;&#9;&#9;c-0.991,1.253-5.65,47.341-5.65,47.341c-3.419,5.423-9.06,30.175-9.06,30.175l4.414-3.179c-1.48,1.962-3.184,34.343-3.687,37.767&#10;&#9;&#9;c-0.477,3.433-2.698,61.547-1.468,62.038c1.24,0.491,4.17,3.215,4.17,3.215s4.414-3.442,0,1.227&#10;&#9;&#9;c-4.419,4.659,1.481,115.264,1.481,115.264l3.915,0.991c-1.222,1.952,3.192,29.175,3.428,32.127&#10;&#9;&#9;c0.259,2.934,2.457,5.141,1.712,10.773c-0.731,5.64,5.654,18.666,8.348,21.091c2.697,2.461,3.937,7.874,3.937,7.874&#10;&#9;&#9;c-0.745,9.074,20.595,47.306,26.722,53.455c6.136,6.15,30.411,50.039,33.363,54.708c2.947,4.651,0.249,14.96,0.249,14.96&#10;&#9;&#9;c-4.183,3.179-20.369,25.496-23.316,31.881c-2.935,6.368-23.303,26.241-23.303,26.241c-19.615,17.158,4.424,14.969,4.424,14.969&#10;&#9;&#9;c-22.076,12.744-0.736,16.177-0.736,16.177c52.732,6.368,65.739-9.819,65.739-9.819c3.906-9.065,20.595-37.268,20.595-37.268&#10;&#9;&#9;l0.994,18.393l5.877,0.246l1.467-21.336c0,0,7.353-7.113,10.295-15.714c2.943-8.565-5.64-23.28-5.64-23.28&#10;&#9;&#9;s-1.703-1.717-4.896-7.848c-3.188-6.14,8.824-25.278,22.549-60.094c13.739-34.834,2.707-92.476,2.462-95.655&#10;&#9;&#9;c-0.25-3.197,0-9.564-2.212-15.205c-2.198-5.659-0.722-15.714-0.722-15.714c1.962-0.963,6.135,0,6.858-3.425&#10;&#9;&#9;c0.744-3.433,0,0,7.353-1.98c7.367-1.952,5.89-0.98,9.06-5.368c3.211-4.424,2.73-2.952,10.332-3.697&#10;&#9;&#9;c7.59-0.726,9.07-4.159,7.848-8.838c-1.226-4.623-4.419-37.758-5.9-49.03c-1.476-11.291-6.858-27.977-5.155-26.996&#10;&#9;&#9;c1.726,0.991,0.995-1.217,1.726-1.944c0.736-0.744,7.121,1.218,6.88-0.999c-0.259-2.207-0.99-4.904-2.212-10.055&#10;&#9;&#9;c-1.24-5.151-6.617-25.261-9.337-33.599c-2.684-8.329-7.353-34.824-11.504-47.322c-4.187-12.526-8.134-28.948-9.342-35.079&#10;&#9;&#9;c-1.218-6.141-1.703-18.893-7.353-43.663c-5.641-24.769-5.391-29.429-5.391-29.429&#10;&#9;&#9;C728.382,458.606,728.619,441.457,729.364,440.458z M681.278,886.84c-1.217,8.347-2.189,35.569-1.703,38.267&#10;&#9;&#9;c0,0-7.603-14.714-8.334-24.269c-0.745-9.583-4.424-31.137-12.012-40.229c-7.626-9.074-21.105-28.957-19.897-36.297&#10;&#9;&#9;c1.24-7.367,0.495-37.777,0.495-37.777l26.496-0.499c0,0-0.745,13.752,0.98,16.441c1.726,2.707,12.012,17.175,12.272,25.514&#10;&#9;&#9;C679.811,836.319,682.508,878.51,681.278,886.84z" style="fill: beige;"/>
	<g>
		<path fill="#fff" d="M449.703,1027.615c-4.036,1.162-13.282,1.162-22.494,0.587c-9.234-0.587-24.805-5.187-24.805-5.187&#10;&#9;&#9;&#9;s1.171-5.209-5.176-13.857c-6.36-8.66-14.421-16.147-21.92-21.334c-7.498-5.187-5.752-15.582-9.224-25.956&#10;&#9;&#9;&#9;c-3.462-10.373-8.084-30.556-9.799-41.505c-1.735-10.971-10.97-17.883-13.249-24.816c-2.333-6.902-0.597-13.25,0.532-21.888&#10;&#9;&#9;&#9;c1.162-8.669-3.418-28.267-4.015-41.548c-0.565-13.228-5.763-29.407-8.074-42.657c-2.311-13.281-9.787-44.967-14.42-57.098&#10;&#9;&#9;&#9;c-4.601-12.11-4.027-34.605-4.027-34.605l-8.084-25.934l-6.902-4.026c3.43-4.633,6.327-44.425,6.327-44.425&#10;&#9;&#9;&#9;s20.769,4.622,28.842,2.311c8.052-2.311,17.297-25.923,19.598-37.491c2.311-11.513-8.084-66.311-10.374-73.809&#10;&#9;&#9;&#9;c-2.311-7.488-9.787-58.803-12.12-69.177c-2.29-10.385-8.638-51.327-8.638-51.327s14.431,4.036,27.096-2.875&#10;&#9;&#9;&#9;c12.685-6.934,14.985-82.49,14.985-82.49c-6.338-13.25-30.547-23.623-30.547-23.623s-3.482-2.312-2.897-4.623&#10;&#9;&#9;&#9;c0.575-2.311-4.036-31.132-4.036-31.132c-5.176-16.731-20.769-21.919-20.769-21.919c10.384-5.752-4.591-25.945-4.591-25.945&#10;&#9;&#9;&#9;c1.14-2.898-1.162-30.557-1.162-30.557c-0.586-4.622,5.187,1.714,5.187,1.714c1.162-5.762,9.809,0.576-2.311-21.322&#10;&#9;&#9;&#9;c-12.089-21.909-66.887-17.872-66.887-17.872c-21.92-2.322-34.019,21.323-34.019,21.323c-7.498-3.451-12.695,19.033-12.695,19.033&#10;&#9;&#9;&#9;c2.886-2.876,4.036,3.451,4.036,3.451c-2.865,5.219,12.674,54.809,12.674,54.809l0.597,13.26l-1.736,5.762l-6.922,14.411&#10;&#9;&#9;&#9;c-3.452-1.16-9.788,16.711-19.012,24.199c-9.245,7.498-13.271,19.033-33.465,50.186c-20.162,31.143-5.176,104.357-5.176,136.095&#10;&#9;&#9;&#9;c0,31.718,11.525,50.741,11.525,69.209c0,18.447-10.374,109.564-8.063,107.242c2.311-2.321,10.938,4.038,21.344,6.923&#10;&#9;&#9;&#9;c10.374,2.876,1.14,13.271,1.14,13.271s-31.132-4.047-50.165-6.348c-19.033-2.322-16.742,17.318-16.742,17.318&#10;&#9;&#9;&#9;S87.556,796.366,82.358,804.45c-5.176,8.052,11.536,11.514,11.536,11.514l28.256,6.933c-6.902,3.451-44.968,118.778-48.43,126.851&#10;&#9;&#9;&#9;c-3.461,8.073-21.333,59.41-23.08,64.032c-1.725,4.622,0.586,25.359,0.586,25.359l39.803,8.073c0,0-4.047,1.151,2.3-0.575&#10;&#9;&#9;&#9;c6.348-1.736,10.949-5.773,31.121,4.026c20.204,9.809,49.014,9.809,68.048,5.198c19.053-4.601-2.29-14.411-7.477-16.147&#10;&#9;&#9;&#9;c-5.197-1.714-19.044-1.714-25.956-6.912c-6.922-5.197-20.182-23.644-20.182-23.644c-4.038-20.183-12.696-25.37-12.696-25.37&#10;&#9;&#9;&#9;c7.498-6.347,45.564-64.586,54.212-79.583c8.659-14.996,29.407-69.209,29.407-69.209l38.055,5.198c0,0,2.322,9.234,5.784,14.974&#10;&#9;&#9;&#9;c3.451,5.784,10.938,18.49,14.4,32.294c3.473,13.846,14.996,54.212,20.758,66.344c5.784,12.098,7.498,13.846,10.374,21.909&#10;&#9;&#9;&#9;c2.887,8.051,5.773,35.169,6.338,38.609c0.597,3.482,3.462,10.981,5.197,20.215c1.747,9.234,5.198,10.363,4.047,15.561&#10;&#9;&#9;&#9;c-1.16,5.197,5.198,21.333,5.198,21.333c2.311,5.187,38.62,0,38.62,0c6.358-5.187,19.609-1.725,41.538-3.462&#10;&#9;&#9;&#9;c21.898-1.746,62.275-21.333,70.348-28.256C478.524,1032.803,453.718,1026.466,449.703,1027.615z M271.899,297.804l-4.899-14.634&#10;&#9;&#9;&#9;c4.154-4.622,5.145-16.818,5.145-16.818c3.163,2.205,10.225,0,10.225,0c-0.97,3.665,23.176,23.39,23.176,23.39&#10;&#9;&#9;&#9;s4.633,0.501,0.234,1.001c-4.378,0.479-1.683,45.852-1.683,45.852C303.35,332.675,271.899,297.804,271.899,297.804z" style="fill: #ff4ef8;"/>
	</g>
	<path fill="#fff" d="M867.781,596.413c0,0-4.633,41.763,17.336,49.075c0,0,16.349,12.722,19.496,6.11&#10;&#9;&#9;c0,0-19.786-22.388-12.121-37.318c0,0,8.346,4.381,5.782,9.359c0,0-1.872,11.117,3.131,13.622c0,0,10.293,1.02,9.082-2.706&#10;&#9;&#9;c-1.205-3.725-1.205-3.725-1.205-3.725s-0.603-32.574-4.89-35.928c0,0-5.346-39.709,0.04-47.383&#10;&#9;&#9;c5.38-7.673,13.853-15.74,12.026-24.837c-1.826-9.087-1.836-16.086-1.836-16.086s3.584-2.796,5.817-3.846&#10;&#9;&#9;c2.234-1.04,2.684-17.436,3.718-22.213c1.017-4.786-1.251-17.698,2.853-22.879c4.109-5.191,8.6,6.673,6.21,13.197&#10;&#9;&#9;c-2.38,6.512-18.818,149.987-15.706,163.579l5.667,1.638l1.039,2.211c0,0,2.575,70.377-1.656,87.993&#10;&#9;&#9;c0,0,3.201,82.736,17.494,105.043c0,0,8.631,89.014,30.583,123.558c0,0,15.335,24.487,8.76,35.421c0,0-28.348,46.28-20.277,55.37&#10;&#9;&#9;c0,0,28.597,10.369,40.998-4.369c0,0,18.45-23.301,14.828-34.511c0,0,0.642-21.819,8.443-22.031c0,0,23.955,10.979,20.698,16.805&#10;&#9;&#9;c0,0-15.821,19.093-7.3,25.03c0.955,0.647,1.668,1.1,2.205,1.385c4.456,8.961,12.681,26.479,10.737,29.592&#10;&#9;&#9;c0,0,48.49,13.343,58.24,2.793c0,0,3.181-26.838-5.744-29.584c0,0,5-24.707,0.014-27.201c-4.967-2.476-7.287-2.183-2.501-8.23&#10;&#9;&#9;c4.779-6.048,5.863-17.042,2.841-22.889c-3.006-5.848-5.227-4.777-7.205-8.413c-1.99-3.644-1.145-9.955,0.633-14.851&#10;&#9;&#9;c1.796-4.877,23.283-117.932,6.805-159.361c0,0,18.351-92.434,9.307-109.965c0,0,17.309-47.212,13.075-56.794&#10;&#9;&#9;c0,0,12.943-3.19,16.642,1.8c0,0,9.938-2.018,7.876-6.453c0,0-19.699-89.965-26.667-96.073c-6.958-6.142,0.426-3.194,0.426-3.194&#10;&#9;&#9;l8.163,2.857l-13.274-27.071c0,0-13.804-58.843-12.198-72.274c0,0,38.215-7.889,40.828-26.105&#10;&#9;&#9;c2.619-18.206,6.796-97.992-11.32-105.82c0,0-31.1-18.61-41.393-12.641c0,0-20.801-24.569-19.965-30.921l-4.54,1.363&#10;&#9;&#9;c0,0,6.372-26.444,8.569-34.479c1.062-3.918,1.21-4.749,1.056-4.628c0.84-2.454,1.505-7.661-5.311-11.952&#10;&#9;&#9;c0,0,1.693-46.821-9.642-50.04c0,0-40.744-41.505-69.83-8.318c0,0-17.057,35.55-12.296,49.715c0,0-4.749,20.032,6.527,36.481&#10;&#9;&#9;c0,0,1.75,15.317,0.645,19.325c0,0,0.174,1.546,5.926,3.929c0,0-2.353,13.509-10.152,20.687c0,0-36.387,24.018-67.155,28.68&#10;&#9;&#9;c0,0-18.252,45.809-16.208,70.394c0,0-3.961,26.918-5.816,38.035c0,0-20.529,87.265-27.276,96.686c0,0-5.002,86.085-9.718,92.88&#10;&#9;&#9;L867.781,596.413z M1010.849,875.225c5.623-12.379-1.018-29.392-4.727-34.381c-3.684-4.947,5.504-27.088-0.02-41.153&#10;&#9;&#9;c-5.516-14.044,6.829-15.642,9.111-22.92c2.313-7.302-4.964-29.664-4.024-35.24c0.781-4.689,9.351-24.244,9.524-35.027&#10;&#9;&#9;c-0.504-3.153-0.801-4.882-0.801-4.882c0.63,1.203,0.827,2.909,0.801,4.882c4.511,27.67,26.186,163.89,19.134,175.944&#10;&#9;&#9;c0,0-6.631,24.142-14.417,31.351C1025.431,913.797,1005.204,887.595,1010.849,875.225z" style="fill: cyan;"/>
</g>
</svg>